<svg id="Set_of_64_UI_Icons" data-name="Set of 64 UI Icons" xmlns="http://www.w3.org/2000/svg" viewBox="0 0 32 32"><defs><style>.cls-1{fill:none;stroke:#000;stroke-miterlimit:10;stroke-width:0.5px;}</style></defs><path d="M16,4A12,12,0,0,0,4,16,14.5,14.5,0,0,0,6,22.87a12.35,12.35,0,0,0,4.85,5,.92.92,0,0,0,.88,0,.68.68,0,0,0,.31-.73,52.58,52.58,0,0,1-1.58-11.36v-.53h4a7.48,7.48,0,0,0,6-2.85,5.47,5.47,0,0,1,1.18,3.38A52.58,52.58,0,0,1,20,27.14a.68.68,0,0,0,.31.73.89.89,0,0,0,.88,0,12.35,12.35,0,0,0,4.85-5A14.5,14.5,0,0,0,28,16,12,12,0,0,0,16,4Zm8.62,18.25A12.68,12.68,0,0,1,22,25.57a52.73,52.73,0,0,0,1.18-9.79,6.84,6.84,0,0,0-2-4.78,5.58,5.58,0,0,0,.4-2.08.81.81,0,0,0-1.6,0c0,2.72-2.5,4.92-5.59,4.92H9.61a.76.76,0,0,0-.8.71v1.23A52.73,52.73,0,0,0,10,25.57a12.68,12.68,0,0,1-2.61-3.32A13.24,13.24,0,0,1,5.62,16,10.47,10.47,0,0,1,16,5.41,10.47,10.47,0,0,1,26.38,16a13.24,13.24,0,0,1-1.76,6.3Zm0,0"/><path class="cls-1" d="M10,23c3.52,5.12,7.39,6.47,12,0"/></svg>