<svg id="Layer_1" data-name="Layer 1" xmlns="http://www.w3.org/2000/svg" viewBox="0 0 1031 1072.36"><defs><style>.cls-1{fill:#fff;}.cls-2{fill:#febc2f;}.cls-3{fill:#4a99c6;}.cls-4,.cls-5,.cls-6,.cls-7,.cls-8{fill:none;stroke-miterlimit:10;}.cls-4,.cls-5{stroke:#febc2f;stroke-dasharray:13;}.cls-4{stroke-width:6.5px;}.cls-5{stroke-width:8.66px;}.cls-6,.cls-7,.cls-8{stroke:#fff;stroke-width:2.17px;}.cls-7{stroke-dasharray:6.56 4.38;}.cls-8{stroke-dasharray:6.41 4.27;}</style></defs><polyline class="cls-1" points="20.81 1028.65 0 1009.92 0 555.27 0 104.52 0 71.22 24.98 44.16 805.49 44.16 902.28 108.95 999.06 173.74 999.06 608.48 999.06 1044.28 988.65 1057.79 978.5 1072.36 501.61 1072.36 70.77 1072.36"/><path class="cls-2" d="M401.73,640.43a64.67,64.67,0,0,1,16.6-10.76,47.59,47.59,0,0,1,20.18-4.49q11.37,0,19.14,5.24t7.77,16.29v2.39a316.2,316.2,0,0,0-33.19,1.8,120,120,0,0,0-30.94,7.17,57.89,57.89,0,0,0-22.73,15.25q-8.82,9.87-8.82,26,0,13.17,5.09,22.13a41.94,41.94,0,0,0,13,14.35,54.34,54.34,0,0,0,17.49,7.78A76.58,76.58,0,0,0,423.86,746a61.29,61.29,0,0,0,25-5.08q11.51-5.08,17.19-14.36h.9v15.85h44.85v-75q0-20.33-3.74-35.13t-11.81-24.52a47.51,47.51,0,0,0-21.08-14.35q-13-4.64-31.84-4.64A105.15,105.15,0,0,0,407.57,595a86,86,0,0,0-30.65,18.84Zm65.19,42.16q0,14.05-7.92,22.28t-22.88,8.22a39.33,39.33,0,0,1-7.47-.75,20.58,20.58,0,0,1-6.88-2.54,15,15,0,0,1-4.93-4.78,12.85,12.85,0,0,1-1.95-7.18,14,14,0,0,1,4.19-10.61,26.87,26.87,0,0,1,10.61-6.13,66.91,66.91,0,0,1,14.65-2.84q8.22-.75,16.3-.75h6.28Zm-125,59.8V650.3a84.86,84.86,0,0,0-2.84-21.38A59.86,59.86,0,0,0,330,609.19a47.73,47.73,0,0,0-16.6-14.36q-10.32-5.52-25.56-5.53-16.76,0-28.41,6.88a56.68,56.68,0,0,0-19.13,18.54,45.15,45.15,0,0,0-17.5-18.84q-11.21-6.57-27.35-6.58a53.66,53.66,0,0,0-28.11,7.63,42.55,42.55,0,0,0-9.72,7.92,52.34,52.34,0,0,0-6.73,9.27h-.59V593.49H102.74v148.9h49.33V661.66q0-13.45,6.43-22.72t18.09-9.27q11.06,0,16.15,7.47t5.08,20.33v84.92h49V662a48.41,48.41,0,0,1,1.5-12.11A31.32,31.32,0,0,1,253,639.53a24.21,24.21,0,0,1,7.78-7.17,21.37,21.37,0,0,1,10.91-2.69q6.57,0,10.62,2.54a18.91,18.91,0,0,1,6.42,6.73A28.64,28.64,0,0,1,292,649a79.4,79.4,0,0,1,.9,12.11v81.33Z" transform="translate(-24.5 -3.82)"/><polyline class="cls-2" points="574.27 650.07 573.38 650.07 573.38 585.48 524.04 585.48 524.04 738.57 573.38 738.57 573.38 667.11 574.27 667.11 623.01 738.57 683.71 738.57 623.91 656.94 660.42 610.84 621.77 584.46"/><path class="cls-2" d="M997.93,590.5a22.3,22.3,0,0,0-4.63-.9c-1.9-.19-3.84-.3-5.83-.3a41.55,41.55,0,0,0-24.22,7.23,48.62,48.62,0,0,0-16.15,18.66h-.59V593.67H899.26V742.39h49V666.05a37.12,37.12,0,0,1,1.79-10.43,32.76,32.76,0,0,1,5.84-11,33.86,33.86,0,0,1,10.76-8.64q6.72-3.59,16.59-3.58c2,0,4,.1,6.13.3a64.65,64.65,0,0,1,8.52,1.25ZM863.24,635.65a73.93,73.93,0,0,0-15.4-25.42,65.93,65.93,0,0,0-23.62-16A80.19,80.19,0,0,0,794,588.7a86.91,86.91,0,0,0-31.7,5.69,76,76,0,0,0-25.41,16,74.56,74.56,0,0,0-17,25.12,83.74,83.74,0,0,0-6.28,33q0,18.84,6.43,33.49a70.44,70.44,0,0,0,17.64,24.66,76.7,76.7,0,0,0,26.16,15.25,95.16,95.16,0,0,0,31.69,5.23q22.72,0,39.92-8.22a69,69,0,0,0,27.66-23.47l-15.42-9.74a31.23,31.23,0,0,0-31.66-.66l-.16.09q-8.08,4.33-19.74,4.33a39.57,39.57,0,0,1-23.77-7.92,32.19,32.19,0,0,1-8.07-8.82,26,26,0,0,1-3.74-11.36H868.47a51.48,51.48,0,0,0,.3-5.69v-6Q868.77,650.61,863.24,635.65ZM760.53,650.9a26.79,26.79,0,0,1,3-10.92,30.48,30.48,0,0,1,7.18-9.12,34.34,34.34,0,0,1,10.46-6.13,37.32,37.32,0,0,1,13.16-2.24q14.64,0,22,8.37a29.39,29.39,0,0,1,7.33,20Z" transform="translate(-24.5 -3.82)"/><path class="cls-3" d="M160.22,348.7q7.16-13.9,17.88-22.05a40.28,40.28,0,0,1,25-8.14q25.82,0,42.11,23.44l27.41-33.37A76.44,76.44,0,0,0,242.86,283Q224.58,274,200.35,274a85.11,85.11,0,0,0-42.71,10.92,98.6,98.6,0,0,0-32.77,30.59Q111.35,335.2,104,362.41T96.66,421.8Q96.66,454,104,481t20.66,46.68a98.77,98.77,0,0,0,32.58,30.79q19.26,11.12,43.1,11.12,26.22,0,43.5-10.33a87.92,87.92,0,0,0,28.4-27l-27.41-32.18A64.4,64.4,0,0,1,228,517.54q-10.14,7.15-24,7.15a41.66,41.66,0,0,1-25.62-8.14q-10.94-8.14-18.08-22T149.5,461.72a214.39,214.39,0,0,1-3.58-39.92,216.8,216.8,0,0,1,3.58-40.32Q153.07,362.61,160.22,348.7Z" transform="translate(-24.5 -3.82)"/><path class="cls-3" d="M437.31,425.57a59.29,59.29,0,0,0,14.1-14.1,77.5,77.5,0,0,0,10.53-21.25q4.17-12.53,4.17-28.81,0-21-6-36.15a68.29,68.29,0,0,0-16.48-25,63.7,63.7,0,0,0-25.23-14.5,107.87,107.87,0,0,0-32.18-4.57H306V562.43H352.1v-120h26.61l43.7,120h50.06L422,432.92A48.8,48.8,0,0,0,437.31,425.57Zm-29.4-29q-11.32,10.94-28.8,10.93h-27V320.89h27a53.33,53.33,0,0,1,14.3,2,34.7,34.7,0,0,1,12.91,6.75,34,34,0,0,1,9.34,13.11q3.57,8.34,3.57,21.06Q419.23,385.66,407.91,396.57Z" transform="translate(-24.5 -3.82)"/><path class="cls-3" d="M551.91,281.17,482,562.43h47.67L544,502.84h73.89l13.9,59.59h49.66L612.7,281.17Zm-2,184.33,30.59-139.44h1.59L611.9,465.5Z" transform="translate(-24.5 -3.82)"/><polygon class="cls-3" points="686.32 558.61 734.39 558.61 734.39 437.84 806.29 437.84 806.29 397.32 733.99 397.32 733.99 320.25 812.25 320.25 812.25 277.35 686.32 277.35 686.32 558.61"/><polygon class="cls-3" points="822.58 277.35 822.58 317.87 875.41 317.87 875.41 558.61 922.29 558.61 922.29 317.87 975.12 317.87 975.12 277.35 822.58 277.35"/><polyline class="cls-4" points="28.1 53.52 34.34 1040.1 34.34 1034.89"/><polyline class="cls-1" points="846.5 0 1031 58.56 999.06 174.31"/><polyline class="cls-5" points="30.68 1035 1017.27 1034.92 1012.07 1034.89"/><polygon class="cls-2" points="620.91 584.71 679.91 576.32 663.71 604.71 620.91 584.71"/><polyline class="cls-6" points="536.5 588.76 536.5 585.51 536.5 588.76"/><polyline class="cls-7" points="536.5 593.14 536.52 662.05 536.53 733.15"/><polyline class="cls-6" points="536.53 735.34 536.53 738.59 536.53 735.34"/><line class="cls-7" x1="536.53" y1="730.96" x2="536.5" y2="590.95"/><polyline class="cls-6" points="296.87 273.45 296.87 270.2 296.87 273.45"/><polyline class="cls-8" points="296.87 277.73 296.88 414.41 296.89 553.23"/><polyline class="cls-6" points="296.89 555.37 296.89 558.62 296.89 555.37"/><line class="cls-8" x1="296.89" y1="551.1" x2="296.87" y2="275.59"/></svg>