<?xml version="1.0" encoding="UTF-8" standalone="no"?>
<svg
   xmlns:dc="http://purl.org/dc/elements/1.1/"
   xmlns:cc="http://creativecommons.org/ns#"
   xmlns:rdf="http://www.w3.org/1999/02/22-rdf-syntax-ns#"
   xmlns:svg="http://www.w3.org/2000/svg"
   xmlns="http://www.w3.org/2000/svg"
   xmlns:xlink="http://www.w3.org/1999/xlink"
   xmlns:sodipodi="http://sodipodi.sourceforge.net/DTD/sodipodi-0.dtd"
   xmlns:inkscape="http://www.inkscape.org/namespaces/inkscape"
   id="Layer_1"
   data-name="Layer 1"
   viewBox="0 0 1031 1072.36"
   version="1.1"
   sodipodi:docname="craftmakr-logo.svg"
   inkscape:version="1.0.2 (e86c870879, 2021-01-15)">
  <metadata
     id="metadata51">
    <rdf:RDF>
      <cc:Work
         rdf:about="">
        <dc:format>image/svg+xml</dc:format>
        <dc:type
           rdf:resource="http://purl.org/dc/dcmitype/StillImage" />
      </cc:Work>
    </rdf:RDF>
  </metadata>
  <sodipodi:namedview
     pagecolor="#ffffff"
     bordercolor="#666666"
     borderopacity="1"
     objecttolerance="10"
     gridtolerance="10"
     guidetolerance="10"
     inkscape:pageopacity="0"
     inkscape:pageshadow="2"
     inkscape:window-width="1366"
     inkscape:window-height="705"
     id="namedview49"
     showgrid="false"
     inkscape:zoom="0.2508486"
     inkscape:cx="521.44517"
     inkscape:cy="720.03259"
     inkscape:window-x="-8"
     inkscape:window-y="-8"
     inkscape:window-maximized="1"
     inkscape:current-layer="Layer_1" />
  <defs
     id="defs4">
    <linearGradient
       inkscape:collect="always"
       id="linearGradient882">
      <stop
         style="stop-color:#febc2f;stop-opacity:1;"
         offset="0"
         id="stop878" />
      <stop
         style="stop-color:#febc2f;stop-opacity:0;"
         offset="1"
         id="stop880" />
    </linearGradient>
    <style
       id="style2">.cls-1{fill:#fff;}.cls-2{fill:#febc2f;}.cls-3{fill:#4a99c6;}.cls-4,.cls-5,.cls-6,.cls-7,.cls-8{fill:none;stroke-miterlimit:10;}.cls-4,.cls-5{stroke:#febc2f;stroke-dasharray:13;}.cls-4{stroke-width:6.5px;}.cls-5{stroke-width:8.66px;}.cls-6,.cls-7,.cls-8{stroke:#fff;stroke-width:2.17px;}.cls-7{stroke-dasharray:6.56 4.38;}.cls-8{stroke-dasharray:6.41 4.27;}</style>
    <radialGradient
       inkscape:collect="always"
       xlink:href="#linearGradient882"
       id="radialGradient884"
       cx="516.49988"
       cy="540.22644"
       fx="516.49988"
       fy="540.22644"
       r="506.94406"
       gradientTransform="matrix(-4.8026483,2.4972509,-1.9863737,-3.8201422,4070.1588,1314.1384)"
       gradientUnits="userSpaceOnUse" />
  </defs>
  <path
     style="fill:url(#radialGradient884);fill-opacity:1;stroke:none;stroke-width:1px;stroke-linecap:butt;stroke-linejoin:miter;stroke-opacity:1"
     d="M 187.36401,47.83762 C 931.20468,6.54876 1103.9109,-116.50396 992.63057,494.32208 948.77942,785.33427 1106.7911,1028.2498 884.99594,1044.4547 773.98127,1052.5657 817.85142,977.42035 514.25442,1040.4682 391.23908,1066.0148 129.14626,1117.5123 39.864682,976.68474 -64.255279,812.45192 139.82309,626.7811 59.797024,358.78215 -39.742535,25.43458 187.36401,47.83762 187.36401,47.83762 Z"
     id="path876"
     sodipodi:nodetypes="ccssssc" />
  <polyline
     class="cls-1"
     points="20.81 1028.65 0 1009.92 0 555.27 0 104.52 0 71.22 24.98 44.16 805.49 44.16 902.28 108.95 999.06 173.74 999.06 608.48 999.06 1044.28 988.65 1057.79 978.5 1072.36 501.61 1072.36 70.77 1072.36"
     id="polyline6"
     transform="matrix(0.84533585,0,0,0.84533585,95.675236,71.75643)" />
  <path
     class="cls-2"
     d="m 414.56129,609.90569 a 54.66787,54.66787 0 0 1 14.03257,-9.09582 40.229533,40.229533 0 0 1 17.05888,-3.79555 q 9.61147,0 16.17973,4.42956 6.56826,4.42956 6.56826,13.77052 v 2.02035 a 267.2952,267.2952 0 0 0 -28.0567,1.5216 101.4403,101.4403 0 0 0 -26.15469,6.06106 48.936493,48.936493 0 0 0 -19.21448,12.89137 q -7.45587,8.34347 -7.45587,21.97874 0,11.13307 4.30276,18.70728 a 35.453386,35.453386 0 0 0 10.98937,12.13057 45.93555,45.93555 0 0 0 14.78492,6.57671 64.73582,64.73582 0 0 0 15.67253,2.04571 51.810635,51.810635 0 0 0 21.1334,-4.2943 q 9.72981,-4.29431 14.53132,-12.13902 h 0.7608 v 13.39857 h 37.91332 v -63.40019 q 0,-17.18568 -3.16156,-29.69665 -3.16156,-12.51097 -9.98342,-20.72763 A 40.161906,40.161906 0 0 0 476.64275,570.158 q -10.98936,-3.92236 -26.91549,-3.92236 a 88.887065,88.887065 0 0 0 -30.22921,5.26644 72.698884,72.698884 0 0 0 -25.90954,15.92613 z m 55.10744,35.63936 q 0,11.87697 -6.69506,18.83408 -6.69506,6.95712 -19.34128,6.94866 a 33.247059,33.247059 0 0 1 -6.31466,-0.634 17.397012,17.397012 0 0 1 -5.81591,-2.14715 12.680038,12.680038 0 0 1 -4.16751,-4.04071 10.862566,10.862566 0 0 1 -1.6484,-6.06951 11.834702,11.834702 0 0 1 3.54196,-8.96901 22.714174,22.714174 0 0 1 8.96901,-5.18191 56.561422,56.561422 0 0 1 12.38417,-2.40076 q 6.94866,-0.634 13.77897,-0.634 h 5.30871 z M 364.00175,696.09613 V 618.24915 A 71.735201,71.735201 0 0 0 361.601,600.17587 50.601804,50.601804 0 0 0 353.92535,583.4974 40.34788,40.34788 0 0 0 339.89277,571.35837 q -8.72386,-4.66625 -21.60678,-4.6747 -14.16783,0 -24.01599,5.81591 a 47.913636,47.913636 0 0 0 -16.17128,15.67252 38.166914,38.166914 0 0 0 -14.79338,-15.92612 q -9.47621,-5.55386 -23.11993,-5.56231 a 45.360722,45.360722 0 0 0 -23.76239,6.44991 35.969041,35.969041 0 0 0 -8.21667,6.69506 44.244879,44.244879 0 0 0 -5.68911,7.83626 h -0.49875 v -17.43928 h -40.20417 v 125.87051 h 41.70042 v -68.24396 q 0,-11.36977 5.43551,-19.20603 5.43551,-7.83627 15.29212,-7.83627 9.34942,0 13.65218,6.31466 4.30276,6.31466 4.2943,17.18568 v 71.78592 h 41.42146 v -67.95655 a 40.922709,40.922709 0 0 1 1.268,-10.23701 26.475919,26.475919 0 0 1 3.95618,-8.75768 20.465581,20.465581 0 0 1 6.57671,-6.06106 18.064827,18.064827 0 0 1 9.22261,-2.27396 q 5.55386,0 8.97747,2.14716 a 15.985301,15.985301 0 0 1 5.42706,5.68911 24.210419,24.210419 0 0 1 2.76424,8.50408 67.119667,67.119667 0 0 1 0.76081,10.23701 v 68.75117 z"
     id="path8"
     style="stroke-width:0.845336" />
  <polyline
     class="cls-2"
     points="574.27 650.07 573.38 650.07 573.38 585.48 524.04 585.48 524.04 738.57 573.38 738.57 573.38 667.11 574.27 667.11 623.01 738.57 683.71 738.57 623.91 656.94 660.42 610.84 621.77 584.46"
     id="polyline10"
     transform="matrix(0.84533585,0,0,0.84533585,95.675236,71.75643)" />
  <path
     class="cls-2"
     d="m 918.55052,567.69807 a 18.85099,18.85099 0 0 0 -3.9139,-0.7608 c -1.60614,-0.16062 -3.24609,-0.2536 -4.92831,-0.2536 a 35.123705,35.123705 0 0 0 -20.47403,6.11177 41.100229,41.100229 0 0 0 -13.65218,15.77397 h -0.49874 v -18.19163 h -39.94212 v 125.71835 h 41.42145 v -64.53294 a 31.378867,31.378867 0 0 1 1.51315,-8.81685 27.693203,27.693203 0 0 1 4.93677,-9.29869 28.623072,28.623072 0 0 1 9.09581,-7.30371 q 5.68066,-3.03475 14.02412,-3.0263 c 1.69067,0 3.38134,0.0845 5.18191,0.2536 a 54.650963,54.650963 0 0 1 7.20226,1.05667 z m -113.85828,38.16691 a 62.49568,62.49568 0 0 0 -13.01817,-21.48843 55.732993,55.732993 0 0 0 -19.96684,-13.52538 67.787482,67.787482 0 0 0 -25.54605,-4.67471 73.468139,73.468139 0 0 0 -26.79714,4.80997 64.245525,64.245525 0 0 0 -21.47999,13.52537 63.028241,63.028241 0 0 0 -14.37071,21.23484 70.788424,70.788424 0 0 0 -5.30871,27.89608 q 0,15.92613 5.43551,28.3103 a 59.545458,59.545458 0 0 0 14.91173,20.84598 64.83726,64.83726 0 0 0 22.11398,12.89137 80.44216,80.44216 0 0 0 26.7887,4.42111 q 19.20603,0 33.74581,-6.94866 a 58.328174,58.328174 0 0 0 23.38198,-19.84004 l -13.03507,-8.23357 a 26.399839,26.399839 0 0 0 -26.76334,-0.55792 l -0.13525,0.0761 q -6.83031,3.66031 -16.68693,3.66031 a 33.44994,33.44994 0 0 1 -20.09363,-6.69506 27.211361,27.211361 0 0 1 -6.82186,-7.45587 21.978732,21.978732 0 0 1 -3.16156,-9.60301 h 91.22865 a 43.51789,43.51789 0 0 0 0.2536,-4.80996 v -5.07202 q 0,-16.12055 -4.67471,-28.76678 z m -86.82445,12.89137 a 22.646548,22.646548 0 0 1 2.53601,-9.23106 25.765837,25.765837 0 0 1 6.06951,-7.70947 29.028833,29.028833 0 0 1 8.84221,-5.1819 31.547934,31.547934 0 0 1 11.12462,-1.89356 q 12.37572,0 18.59739,7.07546 a 24.844421,24.844421 0 0 1 6.19632,16.90672 z"
     id="path12"
     style="stroke-width:0.845336" />
  <path
     class="cls-3"
     d="m 210.40423,363.29586 q 6.0526,-11.75017 15.1146,-18.63966 a 34.050128,34.050128 0 0 1 21.1334,-6.88103 q 21.82657,0 35.59709,19.81467 l 23.17066,-28.20885 a 64.617473,64.617473 0 0 0 -25.1572,-21.6237 q -15.45274,-7.60802 -35.93523,-7.60802 a 71.946535,71.946535 0 0 0 -36.10429,9.23107 83.350115,83.350115 0 0 0 -27.70166,25.85882 q -11.42894,16.64467 -17.64216,39.64625 -6.21321,23.00159 -6.20476,50.2045 0,27.21982 6.20476,50.04388 6.20477,22.82407 17.46464,39.46028 a 83.493822,83.493822 0 0 0 27.54105,26.02789 q 16.28116,9.40014 36.43397,9.40014 22.16471,0 36.77211,-8.73232 a 74.321928,74.321928 0 0 0 24.00754,-22.82407 L 281.92809,491.2628 a 54.439629,54.439629 0 0 1 -14.227,14.75957 q -8.57171,6.04415 -20.28806,6.04415 a 35.216692,35.216692 0 0 1 -21.6575,-6.88104 q -9.24798,-6.88103 -15.28368,-18.59739 -6.0357,-11.71635 -9.12962,-27.75237 a 181.23155,181.23155 0 0 1 -3.02631,-33.74581 183.26881,183.26881 0 0 1 3.02631,-34.08394 q 3.01784,-15.95149 9.062,-27.71011 z"
     id="path14"
     style="stroke-width:0.845336" />
  <path
     class="cls-3"
     d="m 444.63834,428.27683 a 50.119963,50.119963 0 0 0 11.91923,-11.91924 65.513529,65.513529 0 0 0 8.90139,-17.96339 q 3.52505,-10.59205 3.52505,-24.35412 0,-17.75205 -5.07201,-30.55889 a 57.727986,57.727986 0 0 0 -13.93114,-21.1334 53.847894,53.847894 0 0 0 -21.32782,-12.25737 91.186379,91.186379 0 0 0 -27.20291,-3.86318 h -67.81284 v 237.74225 h 38.96998 v -101.4403 h 22.49439 l 36.94117,101.4403 h 42.31752 l -42.6641,-109.47944 a 41.25239,41.25239 0 0 0 12.94209,-6.21322 z m -24.85288,-24.51474 q -9.5692,9.24797 -24.34567,9.23952 h -22.82407 v -73.21454 h 22.82407 a 45.081761,45.081761 0 0 1 12.0883,1.69067 29.333154,29.333154 0 0 1 10.91329,5.70602 28.741419,28.741419 0 0 1 7.89544,11.08235 q 3.01785,7.0501 3.01785,17.80277 0,18.47059 -9.56921,27.69321 z"
     id="path16"
     style="stroke-width:0.845336" />
  <path
     class="cls-3"
     d="M 541.51383,306.21033 482.4164,543.96949 h 40.29716 l 12.11366,-50.37356 h 62.46187 l 11.75017,50.37356 h 41.97937 L 592.90179,306.21033 Z m -1.69067,155.82076 25.85882,-117.87363 h 1.34408 l 25.19946,117.87363 z"
     id="path18"
     style="stroke-width:0.845336" />
  <polygon
     class="cls-3"
     points="734.39,437.84 806.29,437.84 806.29,397.32 733.99,397.32 733.99,320.25 812.25,320.25 812.25,277.35 686.32,277.35 686.32,558.61 734.39,558.61 "
     id="polygon20"
     transform="matrix(0.84533585,0,0,0.84533585,95.675236,71.75643)" />
  <polygon
     class="cls-3"
     points="875.41,317.87 875.41,558.61 922.29,558.61 922.29,317.87 975.12,317.87 975.12,277.35 822.58,277.35 822.58,317.87 "
     id="polygon22"
     transform="matrix(0.84533585,0,0,0.84533585,95.675236,71.75643)" />
  <polyline
     class="cls-4"
     points="28.1 53.52 34.34 1040.1 34.34 1034.89"
     id="polyline24"
     transform="matrix(0.84533585,0,0,0.84533585,95.675236,71.75643)" />
  <polyline
     class="cls-1"
     points="846.5 0 1031 58.56 999.06 174.31"
     id="polyline26"
     transform="matrix(0.84533585,0,0,0.84533585,95.675236,71.75643)" />
  <polyline
     class="cls-5"
     points="30.68 1035 1017.27 1034.92 1012.07 1034.89"
     id="polyline28"
     transform="matrix(0.84533585,0,0,0.84533585,95.675236,71.75643)" />
  <polygon
     class="cls-2"
     points="663.71,604.71 620.91,584.71 679.91,576.32 "
     id="polygon30"
     transform="matrix(0.84533585,0,0,0.84533585,95.675236,71.75643)" />
  <polyline
     class="cls-6"
     points="536.5 588.76 536.5 585.51 536.5 588.76"
     id="polyline32"
     transform="matrix(0.84533585,0,0,0.84533585,95.675236,71.75643)" />
  <polyline
     class="cls-7"
     points="536.5 593.14 536.52 662.05 536.53 733.15"
     id="polyline34"
     transform="matrix(0.84533585,0,0,0.84533585,95.675236,71.75643)" />
  <polyline
     class="cls-6"
     points="536.53 735.34 536.53 738.59 536.53 735.34"
     id="polyline36"
     transform="matrix(0.84533585,0,0,0.84533585,95.675236,71.75643)" />
  <line
     class="cls-7"
     x1="549.22327"
     y1="689.66315"
     x2="549.19794"
     y2="571.30768"
     id="line38" />
  <polyline
     class="cls-6"
     points="296.87 273.45 296.87 270.2 296.87 273.45"
     id="polyline40"
     transform="matrix(0.84533585,0,0,0.84533585,95.675236,71.75643)" />
  <polyline
     class="cls-8"
     points="296.87 277.73 296.88 414.41 296.89 553.23"
     id="polyline42"
     transform="matrix(0.84533585,0,0,0.84533585,95.675236,71.75643)" />
  <polyline
     class="cls-6"
     points="296.89 555.37 296.89 558.62 296.89 555.37"
     id="polyline44"
     transform="matrix(0.84533585,0,0,0.84533585,95.675236,71.75643)" />
  <line
     class="cls-8"
     x1="346.647"
     y1="537.62097"
     x2="346.63007"
     y2="304.72253"
     id="line46" />
</svg>
