<svg id="Layer_25" data-name="Layer 25" xmlns="http://www.w3.org/2000/svg" viewBox="0 0 850 850"><defs><style>.cls-1{fill:#febc2f;}.cls-2{fill:#4a99c6;}.cls-3{fill:#fff;}.cls-4,.cls-5,.cls-6{fill:none;stroke:#fff;stroke-miterlimit:10;}.cls-4,.cls-5{stroke-width:4.54px;}.cls-5{stroke-dasharray:12.97 8.65;}.cls-6{stroke-width:25.07px;stroke-dasharray:31.33 31.33;}</style></defs><circle class="cls-1" cx="425" cy="425" r="425"/><path class="cls-2" d="M263.68,236q9.12-17.78,22.82-28.2t32-10.41q33,0,53.77,30l35-42.68a97.81,97.81,0,0,0-38.05-32.77q-23.34-11.43-54.28-11.43-29.94,0-54.53,14T218.53,193.6q-17.25,25.14-26.63,60t-9.39,76q0,41.16,9.39,75.71t26.37,59.7q17,25.14,41.6,39.37t55,14.23q33.48,0,55.55-13.21a112.26,112.26,0,0,0,36.27-34.55l-35-41.16A82.22,82.22,0,0,1,350.17,452q-12.94,9.15-30.69,9.15-18.78,0-32.72-10.42t-23.08-28.2q-9.14-17.78-13.7-41.92a274.59,274.59,0,0,1-4.57-51.06A277.66,277.66,0,0,1,250,277.94Q254.54,253.81,263.68,236Z"/><path class="cls-2" d="M595.56,344.67a65.81,65.81,0,0,0,20.54-9.87A79.86,79.86,0,0,0,635,315.86a104.45,104.45,0,0,0,14.13-28.54q5.61-16.8,5.61-38.68,0-28.26-8-48.54t-22.13-33.61A85.84,85.84,0,0,0,590.76,147a145.32,145.32,0,0,0-43.21-6.13H439.79V518.57h61.88V357.47h35.75l58.68,161.1h67.21Zm-18.94-48.82q-15.2,14.68-38.67,14.67H501.67V194.23H538a71.37,71.37,0,0,1,19.2,2.67A46.42,46.42,0,0,1,574.49,206q7.72,6.39,12.54,17.6t4.8,28.27Q591.83,281.2,576.62,295.85Z"/><path class="cls-3" d="M471.51,709.48V605.05a96.34,96.34,0,0,0-3.22-24.24A67.78,67.78,0,0,0,458,558.43a54,54,0,0,0-18.82-16.28q-11.7-6.27-29-6.27-19,0-32.21,7.8a64.3,64.3,0,0,0-21.7,21,51.11,51.11,0,0,0-19.84-21.36q-12.7-7.46-31-7.46a61,61,0,0,0-17.46,2.37,61.79,61.79,0,0,0-14.41,6.28,48.28,48.28,0,0,0-11,9A58.55,58.55,0,0,0,254.85,564h-.68V540.63H200.26V709.48H256.2V617.93q0-15.25,7.29-25.76T284,581.65q12.54,0,18.31,8.48t5.76,23.06v96.29h55.61V618.27a55.12,55.12,0,0,1,1.69-13.73,35.47,35.47,0,0,1,5.26-11.7,27.39,27.39,0,0,1,8.82-8.13,24.12,24.12,0,0,1,12.37-3.06q7.46,0,12,2.89a21.42,21.42,0,0,1,7.29,7.63,33,33,0,0,1,3.73,11.35,91.39,91.39,0,0,1,1,13.74v92.22Z"/><polyline class="cls-3" points="543.39 609.12 542.37 609.12 542.37 535.88 486.43 535.88 486.43 709.48 542.37 709.48 542.37 628.45 543.39 628.45 598.66 709.48 667.49 709.48 599.67 616.92 641.07 564.64 597.25 534.72"/><polygon class="cls-3" points="596.28 535.01 663.18 525.49 644.81 557.68 596.28 535.01"/><polygon class="cls-3" points="503.52 535.91 503.59 622.71 503.65 709.5 503.52 535.91"/><polyline class="cls-4" points="503.53 542.73 503.52 535.91 503.53 542.73"/><polyline class="cls-5" points="503.53 551.37 503.59 622.71 503.65 698.36"/><polyline class="cls-4" points="503.65 702.68 503.65 709.5 503.65 702.68"/><line class="cls-5" x1="503.64" y1="694.04" x2="503.53" y2="547.05"/><circle class="cls-6" cx="425" cy="425" r="400.5"/></svg>